<svg width="98" height="119" viewBox="0 0 98 119" fill="none" xmlns="http://www.w3.org/2000/svg">
<path d="M68.7268 0.0281849C50.6563 2.63681 42.9998 14.8848 42.9998 14.8848C42.0478 12.3846 40.8226 9.99648 39.3465 7.76339C39.2393 7.60536 39.0851 7.48475 38.9056 7.41845C38.7262 7.35216 38.5303 7.34351 38.3457 7.39372C36.2783 8.03699 34.3573 9.07719 32.6908 10.4557C32.5961 10.532 32.5177 10.6264 32.46 10.7332C32.4023 10.8401 32.3666 10.9573 32.3548 11.0781C32.3431 11.1988 32.3556 11.3207 32.3917 11.4366C32.4277 11.5525 32.4866 11.6601 32.5648 11.7531C35.4066 15.2704 37.7172 19.1828 39.4235 23.3663C39.4338 23.3732 39.446 23.3769 39.4585 23.3769C39.4709 23.3769 39.4831 23.3732 39.4935 23.3663C42.5349 22.9067 45.6065 22.6735 48.6827 22.6688H49.4665C50.8313 20.9669 56.3532 14.257 61.1683 10.6301C61.2803 10.5367 61.4234 10.4887 61.5693 10.4958C61.7151 10.5029 61.853 10.5644 61.9554 10.6682C62.0577 10.772 62.1171 10.9104 62.1217 11.0558C62.1263 11.2013 62.0758 11.3431 61.9801 11.4531C59.5516 14.5221 56.3812 18.1281 53.0988 22.7107C53.0916 22.7216 53.0872 22.7343 53.0863 22.7474C53.0853 22.7606 53.0878 22.7737 53.0934 22.7856C53.099 22.7975 53.1076 22.8078 53.1184 22.8154C53.1292 22.8231 53.1417 22.8278 53.1548 22.8292C56.4566 23.0684 59.7334 23.5746 62.953 24.3428C62.9627 24.3477 62.9735 24.3503 62.9844 24.3503C62.9954 24.3503 63.0062 24.3477 63.0159 24.3428C70.7145 17.6957 72.0582 8.10515 72.1702 3.04833C72.1742 2.61459 72.0845 2.18506 71.9071 1.78898C71.7297 1.39289 71.4687 1.03955 71.142 0.752977C70.8153 0.466406 70.4304 0.253339 70.0137 0.128271C69.5969 0.00320224 69.158 -0.0309379 68.7268 0.0281849Z" fill="#5FD972"/>
<path d="M48.6966 26.0168C21.8078 26.0168 0 44.6468 0 67.6292C0 81.8302 8.32841 94.3641 21.038 101.876L17.2097 114.801C17.0593 115.306 17.0629 115.845 17.2199 116.348C17.377 116.852 17.6804 117.298 18.0918 117.629C18.5032 117.961 19.0041 118.164 19.5311 118.211C20.058 118.259 20.5873 118.15 21.0519 117.898L38.7306 108.384C42.0214 108.954 45.3564 109.234 48.6966 109.221C75.5925 109.221 97.4003 90.5907 97.4003 67.6083C97.4003 44.6259 75.5925 26.0168 48.6966 26.0168ZM53.8616 95.1244C36.365 95.1244 22.1717 82.995 22.1717 68.0407C22.1717 53.0865 36.358 40.9571 53.8616 40.9571C71.3653 40.9571 85.5585 53.0795 85.5585 68.0407C85.5585 83.0019 71.3653 95.1244 53.8616 95.1244Z" fill="#F26E22"/>
<path d="M46.401 70.8516C48.1906 70.8516 49.6414 69.4058 49.6414 67.6222C49.6414 65.8387 48.1906 64.3928 46.401 64.3928C44.6114 64.3928 43.1606 65.8387 43.1606 67.6222C43.1606 69.4058 44.6114 70.8516 46.401 70.8516Z" fill="#F26E22"/>
<path d="M56.7799 75.8108C58.5695 75.8108 60.0203 74.365 60.0203 72.5814C60.0203 70.7979 58.5695 69.352 56.7799 69.352C54.9903 69.352 53.5396 70.7979 53.5396 72.5814C53.5396 74.365 54.9903 75.8108 56.7799 75.8108Z" fill="#F26E22"/>
<path d="M67.1588 70.8516C68.9485 70.8516 70.3992 69.4058 70.3992 67.6222C70.3992 65.8387 68.9485 64.3928 67.1588 64.3928C65.3692 64.3928 63.9185 65.8387 63.9185 67.6222C63.9185 69.4058 65.3692 70.8516 67.1588 70.8516Z" fill="#F26E22"/>
</svg>
