<svg width="74" height="89" viewBox="0 0 74 89" fill="none" xmlns="http://www.w3.org/2000/svg">
<path d="M52.2153 0.0212181C38.4862 1.98504 32.6691 11.2056 32.6691 11.2056C31.9458 9.32341 31.015 7.52555 29.8935 5.84443C29.8121 5.72547 29.6949 5.63467 29.5586 5.58476C29.4222 5.53485 29.2735 5.52834 29.1332 5.56614C27.5625 6.05041 26.103 6.83349 24.8368 7.87126C24.7649 7.92871 24.7053 7.99973 24.6615 8.08017C24.6177 8.16061 24.5905 8.24887 24.5816 8.33978C24.5727 8.4307 24.5822 8.52245 24.6096 8.6097C24.637 8.69694 24.6817 8.77793 24.7411 8.84793C26.9002 11.4959 28.6557 14.4412 29.952 17.5906C29.9599 17.5958 29.9691 17.5986 29.9786 17.5986C29.9881 17.5986 29.9973 17.5958 30.0052 17.5906C32.3159 17.2446 34.6496 17.0691 36.9867 17.0655H37.5823C38.6191 15.7843 42.8144 10.733 46.4727 8.00253C46.5578 7.93222 46.6665 7.89613 46.7773 7.90145C46.8882 7.90677 46.9929 7.9531 47.0707 8.03123C47.1484 8.10936 47.1936 8.21355 47.197 8.32305C47.2005 8.43256 47.1621 8.53933 47.0895 8.62213C45.2444 10.9325 42.8357 13.6472 40.3419 17.097C40.3364 17.1053 40.3331 17.1148 40.3324 17.1247C40.3316 17.1346 40.3335 17.1445 40.3378 17.1535C40.3421 17.1624 40.3486 17.1702 40.3568 17.1759C40.3649 17.1817 40.3745 17.1852 40.3844 17.1863C42.893 17.3664 45.3825 17.7474 47.8286 18.3257C47.836 18.3294 47.8442 18.3314 47.8525 18.3314C47.8608 18.3314 47.869 18.3294 47.8764 18.3257C53.7254 13.3217 54.7463 6.10172 54.8314 2.29484C54.8345 1.96831 54.7663 1.64496 54.6315 1.34678C54.4967 1.0486 54.2984 0.782592 54.0502 0.566856C53.802 0.35112 53.5096 0.190719 53.193 0.0965647C52.8763 0.00241071 52.5429 -0.0232907 52.2153 0.0212181Z" fill="#DBDBDB"/>
<path d="M36.9973 19.5859C16.5685 19.5859 0 33.611 0 50.9126C0 61.6034 6.32752 71.0392 15.9836 76.6944L13.0751 86.4242C12.9609 86.8048 12.9636 87.2104 13.0829 87.5895C13.2022 87.9686 13.4327 88.3042 13.7453 88.5538C14.0578 88.8035 14.4384 88.9559 14.8387 88.9918C15.2391 89.0277 15.6412 88.9455 15.9943 88.7556L29.4256 81.5934C31.9258 82.023 34.4596 82.2339 36.9973 82.2235C57.4315 82.2235 74 68.1985 74 50.8969C74 33.5953 57.4315 19.5859 36.9973 19.5859ZM40.9215 71.6115C27.6284 71.6115 16.845 62.4803 16.845 51.2224C16.845 39.9646 27.6231 30.8333 40.9215 30.8333C54.2199 30.8333 65.0032 39.9593 65.0032 51.2224C65.0032 62.4855 54.2199 71.6115 40.9215 71.6115Z" fill="#DBDBDB"/>
<path d="M35.2533 53.3384C36.613 53.3384 37.7152 52.2499 37.7152 50.9073C37.7152 49.5646 36.613 48.4761 35.2533 48.4761C33.8936 48.4761 32.7914 49.5646 32.7914 50.9073C32.7914 52.2499 33.8936 53.3384 35.2533 53.3384Z" fill="#DBDBDB"/>
<path d="M43.1388 57.0718C44.4984 57.0718 45.6007 55.9834 45.6007 54.6407C45.6007 53.298 44.4984 52.2095 43.1388 52.2095C41.7791 52.2095 40.6769 53.298 40.6769 54.6407C40.6769 55.9834 41.7791 57.0718 43.1388 57.0718Z" fill="#DBDBDB"/>
<path d="M51.0242 53.3384C52.3839 53.3384 53.4861 52.2499 53.4861 50.9073C53.4861 49.5646 52.3839 48.4761 51.0242 48.4761C49.6646 48.4761 48.5623 49.5646 48.5623 50.9073C48.5623 52.2499 49.6646 53.3384 51.0242 53.3384Z" fill="#DBDBDB"/>
</svg>
